<svg width="35" height="35" viewBox="0 0 35 35" fill="none" xmlns="http://www.w3.org/2000/svg">
<g clip-path="url(#clip0)">
<path d="M15.8657 19.9853C17.0525 20.7278 16.1167 22.5485 14.8176 22.027C12.1468 20.955 10.2822 18.3522 10.2822 15.3245V10.5929C10.2822 9.85768 10.509 9.17541 10.8963 8.61213C11.3712 7.92148 12.4694 8.2266 12.4694 9.13473V13.8664C12.4694 16.5282 13.8687 18.7359 15.8657 19.9853Z" fill="#0D98EF"/>
<path d="M20.3529 23.2197C18.5567 23.9716 16.5827 24.0299 14.6472 23.2197C14.746 22.8095 14.7296 22.5438 14.7296 22.0226L14.7405 21.9956C16.4962 22.7244 18.5004 22.7258 20.2596 21.9956L20.2705 22.0226C20.2705 22.5441 20.254 22.8097 20.3529 23.2197Z" fill="#0D98EF"/>
<path d="M14.648 27.2957C14.3784 27.3805 14.0892 27.4272 13.7792 27.4299C10.7684 27.4564 8.31366 29.8371 8.31366 32.848V33.396C8.31366 33.9597 7.85668 34.4167 7.29296 34.4167H6.85552C6.53342 34.4167 6.27226 34.1556 6.27226 33.8335V30.9711C6.27226 27.968 8.70699 25.5355 11.71 25.5345C12.7719 25.5341 13.7067 24.9874 14.2447 24.1594C14.4615 24.3446 14.6936 24.5111 14.9381 24.6568C16.0137 25.2977 15.8423 26.9201 14.648 27.2957Z" fill="#0D98EF"/>
<path d="M29.311 30.9714V34.4168C29.311 34.7389 29.0498 35 28.7277 35C28.4056 35 28.1444 34.7389 28.1444 34.4168V30.9714C28.1444 28.2888 25.9736 26.1178 23.2908 26.1179C22.0214 26.1179 20.8697 25.4712 20.2098 24.388C20.0423 24.1129 20.1294 23.754 20.4046 23.5864C20.6796 23.4188 21.0385 23.506 21.2061 23.7812C21.6524 24.5139 22.4317 24.9514 23.2908 24.9514C26.6181 24.9512 29.311 27.6438 29.311 30.9714ZM19.1327 25.1248C19.2013 25.4395 19.0017 25.7502 18.687 25.8188C17.152 26.1533 15.5909 25.8185 14.3479 24.97C13.1173 26.2887 11.4917 26.1179 11.7093 26.1179C9.02667 26.1178 6.85565 28.2886 6.85565 30.9714V34.4168C6.85565 34.7389 6.59449 35 6.27239 35C5.95029 35 5.68913 34.7389 5.68913 34.4168V30.9714C5.68913 27.6442 8.38152 24.9514 11.7091 24.9514C13.0552 24.9514 14.1464 23.8669 14.1464 22.5205V22.3669C11.6005 21.1496 9.81356 18.5915 9.70464 15.6126C8.65696 15.3607 7.87635 14.4229 7.87635 13.3072V10.2836C7.84449 8.80356 8.06423 5.09674 10.767 2.49148C14.1043 -0.725621 19.4563 -0.521263 23.3916 1.37323C23.7752 1.55805 23.8334 2.07627 23.5149 2.34464C25.5086 2.83093 27.2277 4.0565 28.3322 5.8105C28.3892 5.90083 28.4936 6.04264 28.4663 6.26887C28.4494 6.40965 28.4075 6.52878 28.299 6.63887C27.5882 7.35978 27.1967 8.31508 27.1967 9.32885V13.3074C27.1967 13.6295 26.9356 13.8906 26.6135 13.8906C26.2914 13.8906 26.0302 13.6295 26.0302 13.3074V9.32885C26.0302 8.15964 26.4297 7.04985 27.1633 6.15834C26.0451 4.55905 24.3004 3.53048 22.3273 3.31919L21.3021 3.20939C20.7027 3.14524 20.5851 2.31942 21.1422 2.09012L21.6084 1.89816C15.5363 -0.218698 9.04279 2.13336 9.04279 10.2772V13.3072C9.04279 13.7701 9.30933 14.1723 9.69895 14.3743V10.5931C9.69895 8.34191 11.5305 6.51034 13.7817 6.51034H21.2183C23.4695 6.51034 25.3011 8.34176 25.3011 10.5929V15.3685C25.3011 20.441 20.3443 24.2938 15.3004 22.8089C15.2676 23.2251 15.164 23.6267 14.9952 23.9999C15.9764 24.6738 17.2155 24.9456 18.4386 24.679C18.7534 24.6105 19.0641 24.81 19.1327 25.1248ZM17.5 21.9588C21.1583 21.9588 24.1346 18.9826 24.1346 15.3242V10.5929C24.1346 8.98502 22.8263 7.67685 21.2183 7.67685H13.7817C12.1737 7.67685 10.8655 8.98509 10.8655 10.5931V15.3242C10.8655 18.9826 13.8417 21.9588 17.5 21.9588ZM23.4055 32.0108H21.6557C21.3336 32.0108 21.0725 32.272 21.0725 32.5941C21.0725 32.9162 21.3336 33.1773 21.6557 33.1773H23.4055C23.7276 33.1773 23.9887 32.9162 23.9887 32.5941C23.9887 32.272 23.7276 32.0108 23.4055 32.0108Z" fill="#0D98EF"/>
</g>
<defs>
<clipPath id="clip0">
<rect width="35" height="35" fill="white"/>
</clipPath>
</defs>
</svg>
