<svg width="42" height="41" viewBox="0 0 42 41" fill="none" xmlns="http://www.w3.org/2000/svg">
<g clip-path="url(#clip0)">
<path d="M34.5259 28.3067H2.8391C1.70793 28.3067 0.79071 27.3898 0.79071 26.2583V9.41248C0.79071 8.28131 1.70793 7.36409 2.8391 7.36409H34.5259C35.6571 7.36409 36.5743 8.28131 36.5743 9.41248V26.2583C36.5743 27.3898 35.6571 28.3067 34.5259 28.3067Z" fill="#10BB67"/>
<path d="M34.5259 7.36409H34.4352V23.908C34.4352 25.0917 33.4757 26.0512 32.2917 26.0512H0.79071V26.2583C0.79071 27.3898 1.70793 28.3067 2.8391 28.3067H34.5259C35.6571 28.3067 36.5743 27.3898 36.5743 26.2583V9.41248C36.5743 8.28131 35.6571 7.36409 34.5259 7.36409Z" fill="#0D9653"/>
<path d="M4.44094 13.814C4.0927 13.8844 3.84387 14.1897 3.84387 14.5447V20.8081C3.84387 21.1625 4.09363 21.4688 4.44094 21.5389C5.70857 21.7945 6.68012 22.8479 6.82646 24.1383C6.86906 24.5156 7.18736 24.799 7.56709 24.799H29.7977C30.1765 24.799 30.4957 24.515 30.5383 24.1383C30.6847 22.8479 31.6562 21.7945 32.9239 21.5389C33.2721 21.4685 33.5209 21.1635 33.5209 20.8081V14.5447C33.5209 14.1903 33.2715 13.8844 32.9239 13.814C31.7451 13.5762 30.8168 12.6476 30.5788 11.4692C30.5087 11.121 30.2034 10.8721 29.8483 10.8721H7.51646C7.16204 10.8721 6.8561 11.1216 6.78602 11.4692C6.54799 12.6476 5.61965 13.5762 4.44094 13.814Z" fill="#32D736"/>
<path d="M31.2738 12.8609V17.6752C31.2738 18.4587 30.8067 19.1657 30.0871 19.476C29.3144 19.8091 28.7114 20.4568 28.4361 21.2533C28.1653 22.0353 27.4185 22.5518 26.5911 22.5518H6.14276C6.52434 23.0059 6.7599 23.5564 6.82597 24.1386C6.86888 24.5159 7.18718 24.799 7.5666 24.799H29.7978C30.1766 24.799 30.4959 24.515 30.5385 24.1383C30.6848 22.8479 31.6564 21.7945 32.924 21.5389C33.2722 21.4685 33.5211 21.1635 33.5211 20.8081V14.5447C33.5211 14.1903 33.2716 13.8844 32.9243 13.814C32.2729 13.6824 31.698 13.3398 31.2738 12.8609Z" fill="#2AB52D"/>
<path d="M23.3045 17.8354C23.3045 20.3882 21.2351 22.4573 18.6826 22.4573C16.1297 22.4573 14.0607 20.3882 14.0607 17.8354C14.0607 15.2829 16.1297 13.2135 18.6826 13.2135C21.2351 13.2135 23.3045 15.2829 23.3045 17.8354Z" fill="#E1E3FA"/>
<path d="M41.2559 26.2012C41.2559 30.147 38.0572 33.3457 34.1114 33.3457C30.1656 33.3457 26.9669 30.147 26.9669 26.2012C26.9669 22.2554 30.1656 19.0567 34.1114 19.0567C38.0572 19.0567 41.2559 22.2554 41.2559 26.2012Z" fill="#17ACE8"/>
<path d="M39.0972 21.0847C39.6094 22.1014 39.8986 23.2492 39.8986 24.465C39.8986 28.6201 36.5302 31.9886 32.375 31.9886C31.1593 31.9886 30.0111 31.6993 28.9948 31.1871C30.2927 32.5183 32.1052 33.3457 34.1113 33.3457C38.0571 33.3457 41.2558 30.147 41.2558 26.2012C41.2558 24.1951 40.4287 22.3826 39.0972 21.0847Z" fill="#1391C4"/>
<path d="M37.8064 25.5906H34.722V22.5061C34.722 22.169 34.4484 21.8954 34.1113 21.8954C33.7742 21.8954 33.5007 22.169 33.5007 22.5061V25.5906H30.4165C30.0791 25.5906 29.8058 25.8638 29.8058 26.2012C29.8058 26.5383 30.0791 26.8119 30.4165 26.8119H33.5007V29.896C33.5007 30.2335 33.7742 30.5067 34.1113 30.5067C34.4488 30.5067 34.722 30.2335 34.722 29.896V26.8119H37.8064C38.1436 26.8119 38.4168 26.5383 38.4168 26.2012C38.4168 25.8641 38.1436 25.5906 37.8064 25.5906Z" fill="#E1E3FA"/>
</g>
<defs>
<clipPath id="clip0">
<rect width="40.4651" height="40.4651" fill="white" transform="translate(0.79071 0.0930176)"/>
</clipPath>
</defs>
</svg>
