<svg width="35" height="35" viewBox="0 0 35 35" fill="none" xmlns="http://www.w3.org/2000/svg">
<g clip-path="url(#clip0)">
<path d="M30.8477 24.2372C36.3849 18.6999 36.3847 9.69001 30.8477 4.15272C25.3104 -1.38457 16.3006 -1.38457 10.7634 4.15272C6.0658 8.85036 5.35434 15.8369 8.62715 21.2927C8.62715 21.2927 8.86223 21.6871 8.54473 22.0044C6.73339 23.8156 1.29904 29.2501 1.29904 29.2501C-0.143147 30.6922 -0.486473 32.7087 0.792456 33.9879L1.01266 34.2078C2.29159 35.487 4.30824 35.1438 5.75032 33.7016C5.75032 33.7016 11.1732 28.2786 12.9808 26.4711C13.3135 26.1384 13.7078 26.3735 13.7078 26.3735C19.1635 29.6462 26.15 28.9348 30.8477 24.2372ZM13.3853 21.6152C9.29384 17.5237 9.29395 10.8664 13.3854 6.77496C17.4769 2.68358 24.1342 2.68347 28.2255 6.77496C32.317 10.8663 32.317 17.5237 28.2255 21.6152C24.1341 25.7064 17.4769 25.7064 13.3853 21.6152Z" fill="#0D98EF"/>
<path d="M14.2911 13.3524C14.1007 13.3524 13.9071 13.3149 13.7205 13.2361C12.9751 12.9207 12.6264 12.0606 12.9419 11.3151C14.9247 6.62929 20.3499 4.43031 25.0356 6.41314C25.781 6.72862 26.1297 7.58868 25.8142 8.33419C25.4986 9.07969 24.6388 9.4282 23.8931 9.11284C20.6962 7.76006 16.9943 9.26043 15.6417 12.4574C15.405 13.0165 14.8622 13.3524 14.2911 13.3524Z" fill="#0D98EF"/>
</g>
<defs>
<clipPath id="clip0">
<rect width="35" height="35" fill="white"/>
</clipPath>
</defs>
</svg>
