<svg width="35" height="35" viewBox="0 0 35 35" fill="none" xmlns="http://www.w3.org/2000/svg">
<g clip-path="url(#clip0)">
<path d="M30.8477 24.2372C36.3848 18.6999 36.3847 9.69001 30.8477 4.15272C25.3104 -1.38457 16.3006 -1.38457 10.7634 4.15272C6.06578 8.85036 5.35433 15.8369 8.62713 21.2927C8.62713 21.2927 8.86222 21.6871 8.54471 22.0044C6.73338 23.8156 1.29903 29.2501 1.29903 29.2501C-0.143163 30.6922 -0.486488 32.7087 0.792441 33.9879L1.01264 34.2078C2.29157 35.487 4.30823 35.1438 5.7503 33.7016C5.7503 33.7016 11.1732 28.2786 12.9808 26.4711C13.3135 26.1384 13.7078 26.3735 13.7078 26.3735C19.1634 29.6462 26.15 28.9348 30.8477 24.2372ZM13.3853 21.6152C9.29383 17.5237 9.29394 10.8664 13.3854 6.77496C17.4769 2.68358 24.1342 2.68347 28.2255 6.77496C32.317 10.8663 32.317 17.5237 28.2255 21.6152C24.134 25.7064 17.4769 25.7064 13.3853 21.6152Z" fill="#C8C8C8"/>
<path d="M14.2911 13.3524C14.1007 13.3524 13.9071 13.3149 13.7205 13.2361C12.9751 12.9207 12.6263 12.0606 12.9418 11.3151C14.9246 6.62929 20.3499 4.43031 25.0355 6.41314C25.7809 6.72862 26.1297 7.58868 25.8142 8.33419C25.4986 9.07969 24.6388 9.4282 23.893 9.11284C20.6961 7.76006 16.9943 9.26043 15.6416 12.4574C15.405 13.0165 14.8622 13.3524 14.2911 13.3524Z" fill="#C8C8C8"/>
</g>
<defs>
<clipPath id="clip0">
<rect width="35" height="35" fill="white"/>
</clipPath>
</defs>
</svg>
