<svg width="35" height="35" viewBox="0 0 35 35" fill="none" xmlns="http://www.w3.org/2000/svg">
<g clip-path="url(#clip0)">
<path d="M32.6427 29.6018H2.3573C2.28478 29.6018 2.21523 29.573 2.16395 29.5217C2.11267 29.4704 2.08386 29.4009 2.08386 29.3284V6.11353C2.08386 6.04101 2.11267 5.97146 2.16395 5.92018C2.21523 5.8689 2.28478 5.84009 2.3573 5.84009H32.6427C32.7152 5.84009 32.7848 5.8689 32.836 5.92018C32.8873 5.97146 32.9161 6.04101 32.9161 6.11353V29.3284C32.9161 29.4009 32.8873 29.4704 32.836 29.5217C32.7848 29.573 32.7152 29.6018 32.6427 29.6018ZM2.63046 29.0549H32.3693V6.38696H2.63074L2.63046 29.0549Z" fill="#0D98EF"/>
<path d="M13.8843 30.1093H6.65356C6.58104 30.1093 6.51149 30.0805 6.46021 30.0292C6.40894 29.9779 6.38013 29.9084 6.38013 29.8359V17.4002C6.38013 17.3277 6.40894 17.2581 6.46021 17.2069C6.51149 17.1556 6.58104 17.1268 6.65356 17.1268H13.8843C13.9569 17.1268 14.0264 17.1556 14.0777 17.2069C14.129 17.2581 14.1578 17.3277 14.1578 17.4002V29.8359C14.1578 29.9084 14.129 29.9779 14.0777 30.0292C14.0264 30.0805 13.9569 30.1093 13.8843 30.1093ZM6.92673 29.5624H13.6109V17.6736H6.927L6.92673 29.5624Z" fill="#0D98EF"/>
<path d="M10.1171 8.98706H5.19527C5.15091 8.98708 5.10721 8.9763 5.06795 8.95566C5.02869 8.93501 4.99503 8.90513 4.9699 8.86858C4.94476 8.83203 4.92889 8.78991 4.92366 8.74586C4.91843 8.70182 4.924 8.65716 4.93988 8.61574L6.69917 4.02992C6.71898 3.97825 6.754 3.93381 6.7996 3.90247C6.8452 3.87113 6.89923 3.85435 6.95456 3.85437H11.1718C11.2129 3.85435 11.2535 3.86361 11.2906 3.88146C11.3276 3.8993 11.3602 3.92527 11.3858 3.95744C11.4114 3.98961 11.4294 4.02714 11.4385 4.06724C11.4477 4.10734 11.4476 4.14898 11.4384 4.18906L10.3837 8.77488C10.3699 8.8352 10.336 8.88903 10.2875 8.92757C10.2391 8.96612 10.179 8.98709 10.1171 8.98706ZM5.59284 8.44019H9.89839L10.8281 4.40234H7.14105L5.59284 8.44019Z" fill="#0D98EF"/>
<path d="M15.0391 8.98707H10.1172C10.0761 8.98708 10.0355 8.97782 9.99841 8.95998C9.96136 8.94213 9.92881 8.91616 9.90319 8.884C9.87757 8.85183 9.85953 8.8143 9.85042 8.7742C9.84131 8.7341 9.84136 8.69246 9.85058 8.65238L10.9052 4.06656C10.9191 4.00624 10.953 3.95241 11.0014 3.91386C11.0499 3.87532 11.1099 3.85435 11.1718 3.85437H15.3907C15.4284 3.85426 15.4658 3.86197 15.5004 3.877C15.5351 3.89204 15.5662 3.91409 15.5919 3.94175C15.6176 3.96942 15.6373 4.0021 15.6497 4.03775C15.6621 4.07339 15.667 4.11122 15.6641 4.14886L15.3125 8.73468C15.3072 8.80349 15.276 8.86775 15.2253 8.91456C15.1746 8.96137 15.1081 8.98727 15.0391 8.98707ZM10.4606 8.44019H14.7859L15.0954 4.40234H11.3895L10.4606 8.44019Z" fill="#0D98EF"/>
<path d="M19.9609 8.98706H15.039C15.0013 8.98718 14.9639 8.97947 14.9293 8.96443C14.8947 8.94939 14.8635 8.92735 14.8378 8.89968C14.8121 8.87202 14.7925 8.83933 14.78 8.80369C14.7676 8.76804 14.7627 8.73021 14.7656 8.69257L15.118 4.10703C15.1234 4.03822 15.1545 3.97396 15.2052 3.92715C15.2559 3.88034 15.3225 3.85444 15.3915 3.85465H19.6093C19.6783 3.85444 19.7448 3.88034 19.7955 3.92715C19.8462 3.97396 19.8774 4.03822 19.8827 4.10703L20.2343 8.69285C20.2372 8.73049 20.2323 8.76832 20.2199 8.80396C20.2075 8.83961 20.1878 8.87229 20.1621 8.89996C20.1364 8.92762 20.1053 8.94967 20.0706 8.96471C20.036 8.97974 19.9986 8.98745 19.9609 8.98734V8.98706ZM15.3343 8.44019H19.6656L19.3561 4.40234H15.6439L15.3343 8.44019Z" fill="#0D98EF"/>
<path d="M24.8828 8.98707H19.9609C19.8919 8.98727 19.8254 8.96137 19.7747 8.91456C19.724 8.86775 19.6928 8.80349 19.6875 8.73468L19.3367 4.14886C19.3338 4.11122 19.3387 4.07339 19.3511 4.03775C19.3636 4.0021 19.3832 3.96942 19.4089 3.94175C19.4346 3.91409 19.4658 3.89204 19.5004 3.877C19.535 3.86197 19.5724 3.85426 19.6101 3.85437H23.8282C23.8901 3.85435 23.9501 3.87532 23.9986 3.91386C24.047 3.95241 24.0809 4.00624 24.0948 4.06656L25.1494 8.65238C25.1586 8.69246 25.1587 8.7341 25.1496 8.7742C25.1405 8.8143 25.1224 8.85183 25.0968 8.884C25.0712 8.91616 25.0386 8.94213 25.0016 8.95998C24.9645 8.97782 24.9239 8.98708 24.8828 8.98707ZM20.2141 8.44019H24.5394L23.6105 4.40234H19.9046L20.2141 8.44019Z" fill="#0D98EF"/>
<path d="M29.8047 8.98706H24.8828C24.8209 8.98709 24.7609 8.96612 24.7124 8.92757C24.664 8.88903 24.6301 8.8352 24.6162 8.77488L23.5616 4.18906C23.5524 4.14898 23.5523 4.10734 23.5614 4.06724C23.5705 4.02714 23.5886 3.98961 23.6142 3.95744C23.6398 3.92527 23.6724 3.8993 23.7094 3.88146C23.7465 3.86361 23.7871 3.85435 23.8282 3.85437H28.047C28.1024 3.85435 28.1564 3.87113 28.202 3.90247C28.2476 3.93381 28.2826 3.97825 28.3024 4.02992L30.0601 8.61574C30.076 8.65716 30.0815 8.70182 30.0763 8.74586C30.0711 8.78991 30.0552 8.83203 30.0301 8.86858C30.0049 8.90513 29.9713 8.93501 29.932 8.95566C29.8928 8.9763 29.8491 8.98708 29.8047 8.98706ZM25.1016 8.44019H29.4082L27.8589 4.40234H24.1719L25.1016 8.44019Z" fill="#0D98EF"/>
<path d="M5.19536 8.98706H0.273481C0.226201 8.98706 0.179729 8.9748 0.138602 8.95147C0.0974759 8.92815 0.0631002 8.89456 0.0388313 8.85398C0.0145623 8.8134 0.00122952 8.76723 0.000134406 8.71996C-0.000960703 8.67269 0.0102193 8.62595 0.032583 8.58429L2.23731 4.47617C2.33797 4.28817 2.4878 4.13104 2.67081 4.02158C2.85382 3.91211 3.06312 3.85441 3.27637 3.85465H6.95329C6.99764 3.85463 7.04134 3.86541 7.0806 3.88606C7.11987 3.9067 7.15352 3.93658 7.17866 3.97313C7.20379 4.00968 7.21966 4.0518 7.22489 4.09584C7.23012 4.13989 7.22456 4.18455 7.20868 4.22597L5.45047 8.81152C5.43068 8.86314 5.39571 8.90755 5.35016 8.93889C5.30462 8.97023 5.25064 8.98703 5.19536 8.98706ZM0.730669 8.44019H5.00723L6.55571 4.40234H3.2761C3.16177 4.40221 3.04955 4.43315 2.95144 4.49186C2.85333 4.55057 2.77303 4.63484 2.71911 4.73566L0.730669 8.44019Z" fill="#0D98EF"/>
<path d="M34.7265 8.98707H29.8047C29.7493 8.98708 29.6953 8.97031 29.6497 8.93897C29.6041 8.90762 29.5691 8.86318 29.5493 8.81152L27.7916 4.2257C27.7757 4.18428 27.7702 4.13962 27.7754 4.09557C27.7806 4.05152 27.7965 4.0094 27.8216 3.97286C27.8468 3.93631 27.8804 3.90642 27.9197 3.88578C27.959 3.86514 28.0027 3.85436 28.047 3.85437H31.7239C31.9372 3.85417 32.1465 3.91188 32.3295 4.02134C32.5125 4.13081 32.6623 4.28791 32.763 4.47589L34.9677 8.58429C34.9901 8.62597 35.0013 8.67274 35.0002 8.72003C34.9991 8.76732 34.9857 8.81352 34.9614 8.8541C34.9371 8.89469 34.9027 8.92827 34.8615 8.95158C34.8204 8.97488 34.7738 8.98711 34.7265 8.98707ZM29.9928 8.44019H34.2696L32.2809 4.73457C32.227 4.63377 32.1467 4.54951 32.0486 4.49081C31.9505 4.4321 31.8383 4.40114 31.7239 4.40125H28.4446L29.9928 8.44019Z" fill="#0D98EF"/>
<path d="M2.73438 13.2092C2.00944 13.2083 1.31445 12.92 0.801839 12.4074C0.289232 11.8948 0.00086836 11.1998 0 10.4748L0 8.7139C0 8.64138 0.0288085 8.57183 0.080088 8.52055C0.131367 8.46927 0.200917 8.44046 0.273438 8.44046H5.19531C5.26783 8.44046 5.33738 8.46927 5.38866 8.52055C5.43994 8.57183 5.46875 8.64138 5.46875 8.7139V10.4748C5.46795 11.1998 5.17961 11.8948 4.66699 12.4075C4.15437 12.9201 3.45933 13.2084 2.73438 13.2092ZM0.546875 8.98706V10.4746C0.546875 11.0547 0.777343 11.6111 1.18758 12.0214C1.59781 12.4316 2.15421 12.6621 2.73438 12.6621C3.31454 12.6621 3.87094 12.4316 4.28117 12.0214C4.69141 11.6111 4.92188 11.0547 4.92188 10.4746V8.98706H0.546875Z" fill="#0D98EF"/>
<path d="M7.65625 13.2092C6.93132 13.2083 6.23632 12.92 5.72371 12.4074C5.21111 11.8948 4.92274 11.1998 4.92188 10.4748V8.7139C4.92188 8.64138 4.95068 8.57183 5.00196 8.52055C5.05324 8.46927 5.12279 8.44046 5.19531 8.44046H10.1172C10.1897 8.44046 10.2593 8.46927 10.3105 8.52055C10.3618 8.57183 10.3906 8.64138 10.3906 8.7139V10.4748C10.3898 11.1998 10.1014 11.8948 9.58879 12.4074C9.07618 12.92 8.38118 13.2083 7.65625 13.2092ZM5.46875 8.98706V10.4746C5.46875 11.0547 5.69922 11.6111 6.10945 12.0214C6.51969 12.4316 7.07609 12.6621 7.65625 12.6621C8.23641 12.6621 8.79281 12.4316 9.20305 12.0214C9.61328 11.6111 9.84375 11.0547 9.84375 10.4746V8.98706H5.46875Z" fill="#0D98EF"/>
<path d="M12.5781 13.2092C11.8532 13.2084 11.1581 12.9201 10.6455 12.4075C10.1329 11.8948 9.84455 11.1998 9.84375 10.4748V8.7139C9.84375 8.64138 9.87256 8.57183 9.92384 8.52055C9.97512 8.46927 10.0447 8.44046 10.1172 8.44046H15.0391C15.1116 8.44046 15.1811 8.46927 15.2324 8.52055C15.2837 8.57183 15.3125 8.64138 15.3125 8.7139V10.4748C15.3116 11.1998 15.0233 11.8948 14.5107 12.4074C13.9981 12.92 13.3031 13.2083 12.5781 13.2092ZM10.3906 8.98706V10.4746C10.3906 11.0547 10.6211 11.6111 11.0313 12.0214C11.4416 12.4316 11.998 12.6621 12.5781 12.6621C13.1583 12.6621 13.7147 12.4316 14.1249 12.0214C14.5352 11.6111 14.7656 11.0547 14.7656 10.4746V8.98706H10.3906Z" fill="#0D98EF"/>
<path d="M17.5 13.2092C16.775 13.2084 16.08 12.9201 15.5674 12.4075C15.0548 11.8948 14.7664 11.1998 14.7656 10.4748V8.7139C14.7656 8.64138 14.7944 8.57183 14.8457 8.52055C14.897 8.46927 14.9665 8.44046 15.0391 8.44046H19.9609C20.0335 8.44046 20.103 8.46927 20.1543 8.52055C20.2056 8.57183 20.2344 8.64138 20.2344 8.7139V10.4748C20.2335 11.1998 19.9451 11.8948 19.4325 12.4074C18.9199 12.92 18.2249 13.2083 17.5 13.2092ZM15.3125 8.98706V10.4746C15.3125 11.0547 15.543 11.6111 15.9532 12.0214C16.3634 12.4316 16.9198 12.6621 17.5 12.6621C18.0802 12.6621 18.6366 12.4316 19.0468 12.0214C19.457 11.6111 19.6875 11.0547 19.6875 10.4746V8.98706H15.3125Z" fill="#0D98EF"/>
<path d="M22.4219 13.2092C21.6969 13.2083 21.0019 12.92 20.4893 12.4074C19.9767 11.8948 19.6884 11.1998 19.6875 10.4748V8.7139C19.6875 8.64138 19.7163 8.57183 19.7676 8.52055C19.8189 8.46927 19.8884 8.44046 19.9609 8.44046H24.8828C24.9553 8.44046 25.0249 8.46927 25.0762 8.52055C25.1274 8.57183 25.1562 8.64138 25.1562 8.7139V10.4748C25.1554 11.1998 24.867 11.8948 24.3544 12.4074C23.8418 12.92 23.1468 13.2083 22.4219 13.2092ZM20.2344 8.98706V10.4746C20.2344 11.0547 20.4648 11.6111 20.8751 12.0214C21.2853 12.4316 21.8417 12.6621 22.4219 12.6621C23.002 12.6621 23.5584 12.4316 23.9687 12.0214C24.3789 11.6111 24.6094 11.0547 24.6094 10.4746V8.98706H20.2344Z" fill="#0D98EF"/>
<path d="M27.3438 13.2092C26.6188 13.2083 25.9238 12.92 25.4112 12.4074C24.8986 11.8948 24.6102 11.1998 24.6094 10.4748V8.7139C24.6094 8.64138 24.6382 8.57183 24.6895 8.52055C24.7407 8.46927 24.8103 8.44046 24.8828 8.44046H29.8047C29.8772 8.44046 29.9468 8.46927 29.998 8.52055C30.0493 8.57183 30.0781 8.64138 30.0781 8.7139V10.4748C30.0773 11.1998 29.7889 11.8948 29.2763 12.4074C28.7637 12.92 28.0687 13.2083 27.3438 13.2092ZM25.1562 8.98706V10.4746C25.1562 11.0547 25.3867 11.6111 25.797 12.0214C26.2072 12.4316 26.7636 12.6621 27.3438 12.6621C27.9239 12.6621 28.4803 12.4316 28.8905 12.0214C29.3008 11.6111 29.5312 11.0547 29.5312 10.4746V8.98706H25.1562Z" fill="#0D98EF"/>
<path d="M32.2656 13.2092C31.5407 13.2083 30.8457 12.92 30.3331 12.4074C29.8205 11.8948 29.5321 11.1998 29.5312 10.4748V8.7139C29.5312 8.64138 29.5601 8.57183 29.6113 8.52055C29.6626 8.46927 29.7322 8.44046 29.8047 8.44046H34.7266C34.7991 8.44046 34.8686 8.46927 34.9199 8.52055C34.9712 8.57183 35 8.64138 35 8.7139V10.4748C34.9992 11.1998 34.7109 11.8948 34.1982 12.4075C33.6856 12.9201 32.9906 13.2084 32.2656 13.2092ZM30.0781 8.98706V10.4746C30.0781 11.0547 30.3086 11.6111 30.7188 12.0214C31.1291 12.4316 31.6855 12.6621 32.2656 12.6621C32.8458 12.6621 33.4022 12.4316 33.8124 12.0214C34.2227 11.6111 34.4531 11.0547 34.4531 10.4746V8.98706H30.0781Z" fill="#0D98EF"/>
<path d="M33.5997 31.1445H1.40027C1.32775 31.1445 1.2582 31.1157 1.20692 31.0644C1.15564 31.0132 1.12683 30.9436 1.12683 30.8711V29.21C1.12683 29.1374 1.15564 29.0679 1.20692 29.0166C1.2582 28.9653 1.32775 28.9365 1.40027 28.9365H33.5997C33.6722 28.9365 33.7418 28.9653 33.7931 29.0166C33.8443 29.0679 33.8732 29.1374 33.8732 29.21V30.8711C33.8732 30.9436 33.8443 31.0132 33.7931 31.0644C33.7418 31.1157 33.6722 31.1445 33.5997 31.1445ZM1.67371 30.5977H33.3263V29.4834H1.67371V30.5977Z" fill="#0D98EF"/>
<path d="M8.16895 24.1462C8.41345 24.1462 8.61165 23.948 8.61165 23.7035C8.61165 23.459 8.41345 23.2608 8.16895 23.2608C7.92446 23.2608 7.72626 23.459 7.72626 23.7035C7.72626 23.948 7.92446 24.1462 8.16895 24.1462Z" fill="#0D98EF"/>
<path d="M24.7412 17.4008L20.5382 25.617H20.0681L24.2741 17.4008H24.7412Z" fill="#0D98EF"/>
<path d="M26.545 17.4008L22.342 25.617H21.405L25.611 17.4008H26.545Z" fill="#0D98EF"/>
<path d="M30.1489 25.8899H16.8968C16.8243 25.8899 16.7547 25.8611 16.7034 25.8098C16.6522 25.7585 16.6234 25.689 16.6234 25.6165V17.4002C16.6234 17.3277 16.6522 17.2581 16.7034 17.2069C16.7547 17.1556 16.8243 17.1268 16.8968 17.1268H30.1489C30.2215 17.1268 30.291 17.1556 30.3423 17.2069C30.3936 17.2581 30.4224 17.3277 30.4224 17.4002V25.6165C30.4224 25.689 30.3936 25.7585 30.3423 25.8098C30.291 25.8611 30.2215 25.8899 30.1489 25.8899ZM17.1702 25.343H29.8755V17.6736H17.1702V25.343Z" fill="#0D98EF"/>
</g>
<defs>
<clipPath id="clip0">
<rect width="35" height="35" fill="white"/>
</clipPath>
</defs>
</svg>
